
<?xml version="1.0" encoding="utf-8"?>
<!-- Svg Vector Icons : http://www.onlinewebfonts.com/icon -->
<!DOCTYPE svg PUBLIC "-//W3C//DTD SVG 1.1//EN" "http://www.w3.org/Graphics/SVG/1.1/DTD/svg11.dtd">
<svg version="1.1" xmlns="http://www.w3.org/2000/svg" xmlns:xlink="http://www.w3.org/1999/xlink" x="0px" y="0px" viewBox="0 0 1000 1000" enable-background="new 0 0 1000 1000" xml:space="preserve">
<metadata> Svg Vector Icons : http://www.onlinewebfonts.com/icon </metadata>
<g><path d="M74.6,266.6h123.7v64.2H74.6V266.6z"/><path d="M279.8,61.4h64.2v123.7h-64.2V61.4z"/><path d="M368.3,851.3c-60.6,60.6-159.1,60.5-219.6,0c-60.6-60.6-60.7-158.9,0-219.6l175.7-175.7l-65.9-65.9L82.8,565.9c-97.2,97.2-97,254.3,0,351.3c96.8,96.8,254.3,97,351.3,0l175.6-175.6l-65.9-65.9L368.3,851.3z"/><path d="M167.6,108.9l87.6,87.5l-45.4,45.4l-87.6-87.5L167.6,108.9z"/><path d="M832.4,864.6l-87.5-87.5l45.4-45.4l87.5,87.5L832.4,864.6z"/><path d="M801.6,642.7h123.7v64.2H801.6V642.7z"/><path d="M655.9,788.4h64.2v123.7h-64.2V788.4z"/><path d="M917.2,82.8c-96.8-96.8-254.3-97-351.3,0L390.2,258.4l65.9,65.9l175.7-175.7c60.6-60.6,159.1-60.5,219.6,0c60.6,60.6,60.6,158.9,0,219.6L675.7,543.9l65.9,65.9l175.6-175.6C1014.3,337,1014.2,179.8,917.2,82.8z"/></g>
</svg>